<svg xmlns="http://www.w3.org/2000/svg" width="1600" height="1000" viewBox="0 0 1600 1000">
<defs>
<linearGradient id="bg" x1="0" y1="0" x2="1" y2="1"><stop stop-color="#28282e"/><stop offset="1" stop-color="#09090c"/></linearGradient>
<radialGradient id="skin"><stop stop-color="#e0ad9b"/><stop offset="1" stop-color="#87584f"/></radialGradient>
<linearGradient id="dress" x1="0" y1="0" x2="1" y2="1"><stop stop-color="#ef3555"/><stop offset=".45" stop-color="#a30d23"/><stop offset="1" stop-color="#38030c"/></linearGradient>
<linearGradient id="shine"><stop stop-color="#fff" stop-opacity=".34"/><stop offset="1" stop-color="#fff" stop-opacity="0"/></linearGradient>
</defs>
<rect width="1600" height="1000" fill="url(#bg)"/>
<circle cx="410" cy="260" r="300" fill="#ffffff" opacity=".035"/>
<circle cx="1250" cy="760" r="360" fill="#a30d23" opacity=".14"/>
<ellipse cx="800" cy="900" rx="270" ry="45" fill="#000" opacity=".45"/>
<ellipse cx="800" cy="210" rx="95" ry="115" fill="url(#skin)"/>
<path d="M660 360 Q800 300 940 360 L1035 850 Q800 930 565 850Z" fill="url(#dress)"/>
<path d="M660 380 Q555 460 520 720" fill="none" stroke="#9e6a60" stroke-width="70" stroke-linecap="round"/>
<path d="M940 380 Q1045 460 1080 720" fill="none" stroke="#9e6a60" stroke-width="70" stroke-linecap="round"/>
<path d="M720 315 Q800 350 880 315" fill="none" stroke="#b97b6d" stroke-width="40" stroke-linecap="round"/>
<path d="M645 372 Q800 470 955 372" fill="none" stroke="#ff9aad" stroke-width="8" opacity=".55"/>
<path d="M690 390 Q750 590 665 825" fill="none" stroke="url(#shine)" stroke-width="28" opacity=".42"/>
<path d="M915 395 Q850 590 930 830" fill="none" stroke="#3d020b" stroke-width="18" opacity=".45"/>
<text x="95" y="900" fill="#ff8fa2" opacity=".24" font-family="Arial" font-size="44" font-weight="700">AI TRY-ON RESULT</text>
</svg>