<svg xmlns="http://www.w3.org/2000/svg" width="1600" height="1000" viewBox="0 0 1600 1000">
<defs>
<linearGradient id="bg" x1="0" y1="0" x2="1" y2="1"><stop stop-color="#28282e"/><stop offset="1" stop-color="#09090c"/></linearGradient>
<radialGradient id="skin"><stop stop-color="#e0ad9b"/><stop offset="1" stop-color="#87584f"/></radialGradient>
<linearGradient id="base"><stop stop-color="#44444d"/><stop offset="1" stop-color="#1d1d23"/></linearGradient>
</defs>
<rect width="1600" height="1000" fill="url(#bg)"/>
<circle cx="410" cy="260" r="300" fill="#ffffff" opacity=".035"/>
<circle cx="1250" cy="760" r="360" fill="#a30d23" opacity=".08"/>
<ellipse cx="800" cy="900" rx="270" ry="45" fill="#000" opacity=".45"/>
<ellipse cx="800" cy="210" rx="95" ry="115" fill="url(#skin)"/>
<path d="M660 360 Q800 300 940 360 L1035 850 Q800 930 565 850Z" fill="url(#base)"/>
<path d="M660 380 Q555 460 520 720" fill="none" stroke="#9e6a60" stroke-width="70" stroke-linecap="round"/>
<path d="M940 380 Q1045 460 1080 720" fill="none" stroke="#9e6a60" stroke-width="70" stroke-linecap="round"/>
<path d="M720 315 Q800 350 880 315" fill="none" stroke="#b97b6d" stroke-width="40" stroke-linecap="round"/>
<path d="M680 400 Q800 445 920 400" fill="none" stroke="#5c5c68" stroke-width="6" opacity=".7"/>
<text x="95" y="900" fill="#fff" opacity=".12" font-family="Arial" font-size="44" font-weight="700">ORIGINAL PHOTO</text>
</svg>