<svg xmlns="http://www.w3.org/2000/svg" width="900" height="1200" viewBox="0 0 900 1200">
<defs>
<linearGradient id="bg" x1="0" y1="0" x2="1" y2="1"><stop stop-color="#191015"/><stop offset="1" stop-color="#050506"/></linearGradient>
<linearGradient id="d" x1="0" y1="0" x2="1" y2="1"><stop stop-color="#ff4e6c"/><stop offset=".6" stop-color="#7f071d"/><stop offset="1" stop-color="#120106"/></linearGradient>
<radialGradient id="light"><stop stop-color="#fff" stop-opacity=".22"/><stop offset="1" stop-color="#fff" stop-opacity="0"/></radialGradient>
<filter id="blur"><feGaussianBlur stdDeviation="36"/></filter>
</defs>
<rect width="900" height="1200" fill="url(#bg)"/>
<circle cx="480" cy="272" r="330" fill="url(#light)" filter="url(#blur)"/>
<path d="M0 890 Q260 892 900 960V1200H0Z" fill="#ff4e6c" opacity=".08"/>
<g transform="translate(450 570) rotate(8) translate(-450 -570)">
<ellipse cx="450" cy="250" rx="91" ry="112" fill="#e0ad9c"/>
<path d="M370 220 Q450 130 530 220 Q520 105 450 92 Q365 108 370 220Z" fill="#291a19"/>
<path d="M390 340 Q450 305 510 340 L535 430 Q450 460 365 430Z" fill="#e0ad9c"/>
<path d="M300 405 Q450 335 600 405 L705 1020 Q450 1110 195 1020Z" fill="url(#d)"/>
<path d="M300 425 Q205 535 165 785" stroke="#e0ad9c" stroke-width="54" stroke-linecap="round" fill="none"/>
<path d="M600 425 Q705 535 742 750" stroke="#e0ad9c" stroke-width="54" stroke-linecap="round" fill="none"/>
<path d="M290 408 Q450 535 610 408" stroke="#fff" stroke-opacity=".23" stroke-width="7" fill="none"/>
<path d="M330 470 Q400 715 290 1000" stroke="#fff" stroke-opacity=".15" stroke-width="24" fill="none"/>
<path d="M575 460 Q500 720 622 1015" stroke="#060207" stroke-opacity=".32" stroke-width="20" fill="none"/>
</g>
<rect x="35" y="35" width="830" height="1130" rx="30" fill="none" stroke="#fff" stroke-opacity=".08"/>
<text x="70" y="1100" fill="#fff" opacity=".65" font-size="18" font-family="Arial" letter-spacing="6">TRYON EDITORIAL / 04</text>
</svg>